<svg width="185" height="135" viewBox="0 0 185 135" fill="none" xmlns="http://www.w3.org/2000/svg">
<path d="M100.512 46.5918C97.6172 45.7598 95.5078 44.7402 94.1836 43.5332C92.8711 42.3145 92.2148 40.8145 92.2148 39.0332C92.2148 37.0176 93.0176 35.3535 94.623 34.041C96.2402 32.7168 98.3379 32.0547 100.916 32.0547C102.674 32.0547 104.238 32.3945 105.609 33.0742C106.992 33.7539 108.059 34.6914 108.809 35.8867C109.57 37.082 109.951 38.3887 109.951 39.8066H106.559C106.559 38.2598 106.066 37.0469 105.082 36.168C104.098 35.2773 102.709 34.832 100.916 34.832C99.252 34.832 97.9512 35.2012 97.0137 35.9395C96.0879 36.666 95.625 37.6797 95.625 38.9805C95.625 40.0234 96.0645 40.9082 96.9434 41.6348C97.834 42.3496 99.3398 43.0059 101.461 43.6035C103.594 44.2012 105.258 44.8633 106.453 45.5898C107.66 46.3047 108.551 47.1426 109.125 48.1035C109.711 49.0645 110.004 50.1953 110.004 51.4961C110.004 53.5703 109.195 55.2344 107.578 56.4883C105.961 57.7305 103.799 58.3516 101.092 58.3516C99.334 58.3516 97.6934 58.0176 96.1699 57.3496C94.6465 56.6699 93.4688 55.7441 92.6367 54.5723C91.8164 53.4004 91.4062 52.0703 91.4062 50.582H94.7988C94.7988 52.1289 95.3672 53.3535 96.5039 54.2559C97.6523 55.1465 99.1816 55.5918 101.092 55.5918C102.873 55.5918 104.238 55.2285 105.188 54.502C106.137 53.7754 106.611 52.7852 106.611 51.5312C106.611 50.2773 106.172 49.3105 105.293 48.6309C104.414 47.9395 102.82 47.2598 100.512 46.5918ZM116.912 38.9805L117.018 41.3711C118.471 39.543 120.369 38.6289 122.713 38.6289C126.732 38.6289 128.76 40.8965 128.795 45.4316V58H125.543V45.4141C125.531 44.043 125.215 43.0293 124.594 42.373C123.984 41.7168 123.029 41.3887 121.729 41.3887C120.674 41.3887 119.748 41.6699 118.951 42.2324C118.154 42.7949 117.533 43.5332 117.088 44.4473V58H113.836V38.9805H116.912ZM132.838 48.3145C132.838 46.4512 133.201 44.7754 133.928 43.2871C134.666 41.7988 135.686 40.6504 136.986 39.8418C138.299 39.0332 139.793 38.6289 141.469 38.6289C144.059 38.6289 146.15 39.5254 147.744 41.3184C149.35 43.1113 150.152 45.4961 150.152 48.4727V48.7012C150.152 50.5527 149.795 52.2168 149.08 53.6934C148.377 55.1582 147.363 56.3008 146.039 57.1211C144.727 57.9414 143.215 58.3516 141.504 58.3516C138.926 58.3516 136.834 57.4551 135.229 55.6621C133.635 53.8691 132.838 51.4961 132.838 48.543V48.3145ZM136.107 48.7012C136.107 50.8105 136.594 52.5039 137.566 53.7812C138.551 55.0586 139.863 55.6973 141.504 55.6973C143.156 55.6973 144.469 55.0527 145.441 53.7637C146.414 52.4629 146.9 50.6465 146.9 48.3145C146.9 46.2285 146.402 44.541 145.406 43.252C144.422 41.9512 143.109 41.3008 141.469 41.3008C139.863 41.3008 138.568 41.9395 137.584 43.2168C136.6 44.4941 136.107 46.3223 136.107 48.7012ZM171.07 53.5176L174.727 38.9805H177.979L172.441 58H169.805L165.182 43.5859L160.682 58H158.045L152.525 38.9805H155.76L159.504 53.2188L163.934 38.9805H166.553L171.07 53.5176ZM92.9707 100V74.4062H101.338C104.115 74.4062 106.201 74.9805 107.596 76.1289C109.002 77.2773 109.705 78.9766 109.705 81.2266C109.705 82.4219 109.365 83.4824 108.686 84.4082C108.006 85.3223 107.08 86.0312 105.908 86.5352C107.291 86.9219 108.381 87.6602 109.178 88.75C109.986 89.8281 110.391 91.1172 110.391 92.6172C110.391 94.9141 109.646 96.7188 108.158 98.0312C106.67 99.3438 104.566 100 101.848 100H92.9707ZM96.3457 88.0293V97.2402H101.918C103.488 97.2402 104.725 96.8359 105.627 96.0273C106.541 95.207 106.998 94.082 106.998 92.6523C106.998 89.5703 105.322 88.0293 101.971 88.0293H96.3457ZM96.3457 85.3223H101.443C102.92 85.3223 104.098 84.9531 104.977 84.2148C105.867 83.4766 106.312 82.4746 106.312 81.209C106.312 79.8027 105.902 78.7832 105.082 78.1504C104.262 77.5059 103.014 77.1836 101.338 77.1836H96.3457V85.3223ZM114.029 90.3145C114.029 88.4512 114.393 86.7754 115.119 85.2871C115.857 83.7988 116.877 82.6504 118.178 81.8418C119.49 81.0332 120.984 80.6289 122.66 80.6289C125.25 80.6289 127.342 81.5254 128.936 83.3184C130.541 85.1113 131.344 87.4961 131.344 90.4727V90.7012C131.344 92.5527 130.986 94.2168 130.271 95.6934C129.568 97.1582 128.555 98.3008 127.23 99.1211C125.918 99.9414 124.406 100.352 122.695 100.352C120.117 100.352 118.025 99.4551 116.42 97.6621C114.826 95.8691 114.029 93.4961 114.029 90.543V90.3145ZM117.299 90.7012C117.299 92.8105 117.785 94.5039 118.758 95.7812C119.742 97.0586 121.055 97.6973 122.695 97.6973C124.348 97.6973 125.66 97.0527 126.633 95.7637C127.605 94.4629 128.092 92.6465 128.092 90.3145C128.092 88.2285 127.594 86.541 126.598 85.252C125.613 83.9512 124.301 83.3008 122.66 83.3008C121.055 83.3008 119.76 83.9395 118.775 85.2168C117.791 86.4941 117.299 88.3223 117.299 90.7012ZM147.164 100C146.977 99.625 146.824 98.957 146.707 97.9961C145.195 99.5664 143.391 100.352 141.293 100.352C139.418 100.352 137.877 99.8242 136.67 98.7695C135.475 97.7031 134.877 96.3555 134.877 94.7266C134.877 92.7461 135.627 91.2109 137.127 90.1211C138.639 89.0195 140.76 88.4688 143.49 88.4688H146.654V86.9746C146.654 85.8379 146.314 84.9355 145.635 84.2676C144.955 83.5879 143.953 83.248 142.629 83.248C141.469 83.248 140.496 83.541 139.711 84.127C138.926 84.7129 138.533 85.4219 138.533 86.2539H135.264C135.264 85.3047 135.598 84.3906 136.266 83.5117C136.945 82.6211 137.859 81.918 139.008 81.4023C140.168 80.8867 141.439 80.6289 142.822 80.6289C145.014 80.6289 146.73 81.1797 147.973 82.2812C149.215 83.3711 149.859 84.877 149.906 86.7988V95.5527C149.906 97.2988 150.129 98.6875 150.574 99.7188V100H147.164ZM141.768 97.5215C142.787 97.5215 143.754 97.2578 144.668 96.7305C145.582 96.2031 146.244 95.5176 146.654 94.6738V90.7715H144.105C140.121 90.7715 138.129 91.9375 138.129 94.2695C138.129 95.2891 138.469 96.0859 139.148 96.6602C139.828 97.2344 140.701 97.5215 141.768 97.5215ZM164.197 83.8984C163.705 83.8164 163.172 83.7754 162.598 83.7754C160.465 83.7754 159.018 84.6836 158.256 86.5V100H155.004V80.9805H158.168L158.221 83.1777C159.287 81.4785 160.799 80.6289 162.756 80.6289C163.389 80.6289 163.869 80.7109 164.197 80.875V83.8984ZM166.061 90.332C166.061 87.4141 166.752 85.0703 168.135 83.3008C169.518 81.5195 171.328 80.6289 173.566 80.6289C175.793 80.6289 177.557 81.3906 178.857 82.9141V73H182.109V100H179.121L178.963 97.9609C177.662 99.5547 175.852 100.352 173.531 100.352C171.328 100.352 169.529 99.4492 168.135 97.6445C166.752 95.8398 166.061 93.4844 166.061 90.5781V90.332ZM169.312 90.7012C169.312 92.8574 169.758 94.5449 170.648 95.7637C171.539 96.9824 172.77 97.5918 174.34 97.5918C176.402 97.5918 177.908 96.666 178.857 94.8145V86.0781C177.885 84.2852 176.391 83.3887 174.375 83.3887C172.781 83.3887 171.539 84.0039 170.648 85.2344C169.758 86.4648 169.312 88.2871 169.312 90.7012Z" fill="#BCB7F3"/>
<path d="M51.3534 72.085C43.4605 73.5692 37.2136 73.6664 32.613 72.3764C28.0262 71.0445 24.6662 68.2566 22.5329 64.0126C20.1189 59.2102 20.0385 54.284 22.2918 49.234C24.559 44.1422 28.7639 40.0524 34.9066 36.9647C39.0947 34.8595 43.2292 33.7956 47.31 33.7729C51.4187 33.7362 55.0823 34.6928 58.3008 36.6425C61.5472 38.5782 64.0195 41.2352 65.7177 44.6137L57.6346 48.6768C55.782 44.9912 53.1567 42.6908 49.7587 41.7757C46.3467 40.8326 42.5047 41.4347 38.2328 43.582C34.268 45.575 31.6109 48.0123 30.2614 50.8942C28.9258 53.734 29.0369 56.7036 30.5948 59.8028C31.8438 62.2878 33.9505 63.8695 36.9148 64.548C39.8929 65.1846 44.2667 64.9447 50.0362 63.8283C55.8336 62.698 60.5914 62.2826 64.3095 62.5821C68.0415 62.8397 71.1669 63.7695 73.6859 65.3713C76.2328 66.9591 78.2852 69.3026 79.8431 72.4018C82.3272 77.3439 82.3936 82.2771 80.0422 87.2014C77.6768 92.0978 73.2692 96.1671 66.8195 99.4091C62.6313 101.514 58.3224 102.683 53.8926 102.916C49.4489 103.122 45.5341 102.326 42.1482 100.531C38.7902 98.721 36.22 96.0432 34.4376 92.4972L42.5208 88.4341C44.3734 92.1197 47.1942 94.3568 50.9832 95.1453C54.7861 95.8919 58.9631 95.1214 63.5143 92.8337C67.7583 90.7004 70.576 88.1998 71.9674 85.3319C73.3589 82.464 73.3038 79.5362 71.802 76.5487C70.3003 73.5611 68.0954 71.7839 65.1873 71.2171C62.2652 70.6224 57.6539 70.9117 51.3534 72.085Z" fill="#BCB7F3"/>
<path d="M53.5937 68.6672L46.4218 47.0773L53.4801 44.7326C55.823 43.9544 57.7435 43.8542 59.2417 44.4323C60.7498 45.007 61.8191 46.2433 62.4495 48.1414C62.7845 49.1497 62.795 50.1396 62.4811 51.111C62.1638 52.0725 61.5815 52.93 60.7342 53.6835C62.0091 53.6222 63.1353 53.9396 64.1129 54.6356C65.0971 55.3185 65.7994 56.2926 66.2197 57.558C66.8633 59.4956 66.7413 61.2265 65.8536 62.7507C64.966 64.2749 63.3754 65.4179 61.082 66.1798L53.5937 68.6672ZM53.0863 57.6234L55.6674 65.3935L60.3679 63.832C61.6926 63.392 62.6222 62.7045 63.1568 61.7695C63.698 60.8214 63.7683 59.7443 63.3677 58.5383C62.5041 55.9384 60.6586 55.1081 57.8313 56.0472L53.0863 57.6234ZM52.3277 55.3399L56.6279 53.9114C57.8735 53.4977 58.7636 52.8563 59.2981 51.9872C59.8425 51.1148 59.9374 50.1448 59.5828 49.0772C59.1887 47.8909 58.557 47.1458 57.6877 46.8419C56.8151 46.528 55.672 46.6059 54.2584 47.0755L50.0471 48.4744L52.3277 55.3399Z" fill="#966F25"/>
</svg>
